<svg width="14" height="14" viewBox="0 0 14 14" fill="none" xmlns="http://www.w3.org/2000/svg">
<path d="M12 4.5897e-07C12.8284 4.95181e-07 13.5 0.671573 13.5 1.5V4.5C13.5 5.32843 12.8284 6 12 6L1.5 6C0.671572 6 -3.62117e-08 5.32843 0 4.5L1.31134e-07 1.5C1.67346e-07 0.671573 0.671572 -3.62117e-08 1.5 0L12 4.5897e-07ZM12 4.5V1.5L1.5 1.5L1.5 4.5L12 4.5Z" fill="#1C1D22"/>
<path d="M12 7.5C12.8284 7.5 13.5 8.17157 13.5 9V12C13.5 12.8284 12.8284 13.5 12 13.5H1.5C0.671572 13.5 -3.62117e-08 12.8284 0 12L1.31134e-07 9C1.67346e-07 8.17157 0.671572 7.5 1.5 7.5L12 7.5ZM12 12V9L1.5 9L1.5 12H12Z" fill="#1C1D22"/>
</svg>
