<svg width="19" height="19" viewBox="0 0 19 19" fill="none" xmlns="http://www.w3.org/2000/svg">
<path d="M7.33333 1.83333C4.29577 1.83333 1.83333 4.29577 1.83333 7.33333C1.83333 10.3709 4.29577 12.8333 7.33333 12.8333C10.3709 12.8333 12.8333 10.3709 12.8333 7.33333C12.8333 4.29577 10.3709 1.83333 7.33333 1.83333ZM0 7.33333C0 3.28325 3.28325 0 7.33333 0C11.3834 0 14.6667 3.28325 14.6667 7.33333C14.6667 9.02798 14.0918 10.5884 13.1265 11.8302L18.0648 16.7685C18.4228 17.1265 18.4228 17.7069 18.0648 18.0648C17.7069 18.4228 17.1265 18.4228 16.7685 18.0648L11.8302 13.1265C10.5884 14.0918 9.02798 14.6667 7.33333 14.6667C3.28325 14.6667 0 11.3834 0 7.33333Z" fill="#1C1D22"/>
</svg>
